<svg xmlns="http://www.w3.org/2000/svg" width="25" height="25" viewBox="0 0 25 25" fill="none">
  <mask id="mask0_556_1221" style="mask-type:alpha" maskUnits="userSpaceOnUse" x="0" y="0" width="25" height="25">
    <rect x="0.802856" y="0.171387" width="24" height="24" fill="#D9D9D9"/>
  </mask>
  <g mask="url(#mask0_556_1221)">
    <path d="M12.8029 20.1714C12.0029 19.5381 11.1362 19.0464 10.2029 18.6964C9.26952 18.3464 8.30286 18.1714 7.30286 18.1714C6.60286 18.1714 5.91536 18.2631 5.24036 18.4464C4.56536 18.6297 3.91952 18.8881 3.30286 19.2214C2.95286 19.4047 2.61536 19.3964 2.29036 19.1964C1.96536 18.9964 1.80286 18.7047 1.80286 18.3214V6.27139C1.80286 6.08805 1.84869 5.91305 1.94036 5.74639C2.03202 5.57972 2.16952 5.45472 2.35286 5.37139C3.11952 4.97139 3.91952 4.67139 4.75286 4.47139C5.58619 4.27139 6.43619 4.17139 7.30286 4.17139C8.26952 4.17139 9.21536 4.29639 10.1404 4.54639C11.0654 4.79639 11.9529 5.17139 12.8029 5.67139V17.7714C13.6529 17.2381 14.5445 16.8381 15.4779 16.5714C16.4112 16.3047 17.3529 16.1714 18.3029 16.1714C18.9029 16.1714 19.4904 16.2214 20.0654 16.3214C20.6404 16.4214 21.2195 16.5714 21.8029 16.7714V4.77139C22.0529 4.85472 22.2987 4.94222 22.5404 5.03389C22.782 5.12555 23.0195 5.23805 23.2529 5.37139C23.4362 5.45472 23.5737 5.57972 23.6654 5.74639C23.757 5.91305 23.8029 6.08805 23.8029 6.27139V18.3214C23.8029 18.7047 23.6404 18.9964 23.3154 19.1964C22.9904 19.3964 22.6529 19.4047 22.3029 19.2214C21.6862 18.8881 21.0404 18.6297 20.3654 18.4464C19.6904 18.2631 19.0029 18.1714 18.3029 18.1714C17.3029 18.1714 16.3362 18.3464 15.4029 18.6964C14.4695 19.0464 13.6029 19.5381 12.8029 20.1714ZM14.8029 15.1714V5.67139L19.8029 0.671387V10.6714L14.8029 15.1714ZM10.8029 16.7964V6.89639C10.2529 6.66305 9.68202 6.48389 9.09036 6.35889C8.49869 6.23389 7.90286 6.17139 7.30286 6.17139C6.68619 6.17139 6.08619 6.22972 5.50286 6.34639C4.91952 6.46305 4.35286 6.63805 3.80286 6.87139V16.7964C4.38619 16.5797 4.96536 16.4214 5.54036 16.3214C6.11536 16.2214 6.70286 16.1714 7.30286 16.1714C7.90286 16.1714 8.49036 16.2214 9.06536 16.3214C9.64036 16.4214 10.2195 16.5797 10.8029 16.7964Z" fill="white"/>
  </g>
</svg>