<svg xmlns="http://www.w3.org/2000/svg" width="25" height="25" viewBox="0 0 25 25" fill="none">
  <mask id="mask0_557_1251" style="mask-type:alpha" maskUnits="userSpaceOnUse" x="0" y="0" width="25" height="25">
    <rect x="0.802856" y="0.171387" width="24" height="24" fill="#D9D9D9"/>
  </mask>
  <g mask="url(#mask0_557_1251)">
    <path d="M13.0779 19.1714C13.2779 19.1547 13.4487 19.0756 13.5904 18.9339C13.732 18.7922 13.8029 18.6214 13.8029 18.4214C13.8029 18.1881 13.7279 18.0006 13.5779 17.8589C13.4279 17.7172 13.2362 17.6547 13.0029 17.6714C12.3195 17.7214 11.5945 17.5339 10.8279 17.1089C10.0612 16.6839 9.57786 15.9131 9.37786 14.7964C9.34452 14.6131 9.25702 14.4631 9.11536 14.3464C8.97369 14.2297 8.81119 14.1714 8.62786 14.1714C8.39452 14.1714 8.20286 14.2589 8.05286 14.4339C7.90286 14.6089 7.85286 14.8131 7.90286 15.0464C8.18619 16.5631 8.85286 17.6464 9.90286 18.2964C10.9529 18.9464 12.0112 19.2381 13.0779 19.1714ZM12.8029 22.1714C10.5195 22.1714 8.61536 21.3881 7.09036 19.8214C5.56536 18.2547 4.80286 16.3047 4.80286 13.9714C4.80286 12.3047 5.46536 10.4922 6.79036 8.53389C8.11536 6.57555 10.1195 4.45472 12.8029 2.17139C15.4862 4.45472 17.4904 6.57555 18.8154 8.53389C20.1404 10.4922 20.8029 12.3047 20.8029 13.9714C20.8029 16.3047 20.0404 18.2547 18.5154 19.8214C16.9904 21.3881 15.0862 22.1714 12.8029 22.1714Z" fill="#e0d9ba"/>
  </g>
</svg>