<svg width="16" height="16" viewBox="0 0 16 16" fill="none" xmlns="http://www.w3.org/2000/svg">
<mask id="mask0_432_300" style="mask-type:alpha" maskUnits="userSpaceOnUse" x="0" y="0" width="16" height="16">
<rect width="16" height="16" fill="#D9D9D9"/>
</mask>
<g mask="url(#mask0_432_300)">
<path d="M3.33333 14.6667C2.96667 14.6667 2.65278 14.5361 2.39167 14.275C2.13056 14.0139 2 13.7 2 13.3333V5.33333C2 4.96667 2.13056 4.65278 2.39167 4.39167C2.65278 4.13056 2.96667 4 3.33333 4H4.66667C4.66667 3.07778 4.99167 2.29167 5.64167 1.64167C6.29167 0.991666 7.07778 0.666666 8 0.666666C8.92222 0.666666 9.70833 0.991666 10.3583 1.64167C11.0083 2.29167 11.3333 3.07778 11.3333 4H12.6667C13.0333 4 13.3472 4.13056 13.6083 4.39167C13.8694 4.65278 14 4.96667 14 5.33333V13.3333C14 13.7 13.8694 14.0139 13.6083 14.275C13.3472 14.5361 13.0333 14.6667 12.6667 14.6667H3.33333ZM3.33333 13.3333H12.6667V5.33333H3.33333V13.3333ZM8 9.33333C8.92222 9.33333 9.70833 9.00833 10.3583 8.35833C11.0083 7.70833 11.3333 6.92222 11.3333 6H10C10 6.55555 9.80556 7.02778 9.41667 7.41667C9.02778 7.80556 8.55556 8 8 8C7.44444 8 6.97222 7.80556 6.58333 7.41667C6.19444 7.02778 6 6.55555 6 6H4.66667C4.66667 6.92222 4.99167 7.70833 5.64167 8.35833C6.29167 9.00833 7.07778 9.33333 8 9.33333ZM6 4H10C10 3.44444 9.80556 2.97222 9.41667 2.58333C9.02778 2.19444 8.55556 2 8 2C7.44444 2 6.97222 2.19444 6.58333 2.58333C6.19444 2.97222 6 3.44444 6 4Z" fill="#E0D9BA"/>
</g>
</svg>
