<svg xmlns="http://www.w3.org/2000/svg" width="16" height="16" viewBox="0 0 16 16" fill="none">
  <g clip-path="url(#clip0_480_915)">
    <path d="M7.99999 6.99382e-07C12.4183 1.08564e-06 16 3.58173 16 8C16 12.0902 12.9303 15.463 8.96921 15.9414L8.96921 10.4447L11.1334 10.4447L11.5823 8L8.96921 8L8.96921 7.13539C8.96921 6.48945 9.09591 6.04226 9.38657 5.75656C9.67726 5.47084 10.1319 5.34662 10.7878 5.34662C10.9538 5.34662 11.1066 5.34827 11.2422 5.35157C11.4394 5.35638 11.6001 5.36467 11.712 5.37645L11.712 3.16032C11.6673 3.14789 11.6145 3.13547 11.5554 3.12324C11.4214 3.09554 11.2548 3.06883 11.0757 3.04537C10.7016 2.99636 10.2729 2.96154 9.97292 2.96154C8.7616 2.96154 7.84614 3.22068 7.20713 3.75746C6.43592 4.40527 6.06739 5.45748 6.06739 6.94659L6.06739 7.99999L4.41772 7.99999L4.41772 10.4447L6.06739 10.4447L6.06739 15.7644C2.58288 14.8999 -1.02738e-06 11.7518 -6.99382e-07 7.99999C-3.13124e-07 3.58173 3.58173 3.13124e-07 7.99999 6.99382e-07Z" fill="white"/>
  </g>
  <defs>
    <clipPath id="clip0_480_915">
      <rect width="16" height="16" fill="white"/>
    </clipPath>
  </defs>
</svg>