<svg width="32" height="32" viewBox="0 0 32 32" fill="none" xmlns="http://www.w3.org/2000/svg">
<mask id="mask0_904_3578" style="mask-type:alpha" maskUnits="userSpaceOnUse" x="0" y="0" width="32" height="32">
<rect width="32" height="32" fill="#D9D9D9"/>
</mask>
<g mask="url(#mask0_904_3578)">
<path d="M15.395 27.782C14.0956 27.5273 12.7982 27.1 11.5026 26.5C10.2069 25.9 9.04652 25.065 8.02163 23.995C6.99696 22.9247 6.16452 21.6059 5.5243 20.0383C4.88408 18.471 4.56396 16.595 4.56396 14.4103V14.195C4.56396 13.9521 4.63841 13.7563 4.7873 13.6076C4.93596 13.459 5.13163 13.3846 5.3743 13.3846H5.5383C6.46652 13.3846 7.56908 13.606 8.84597 14.0486C10.1231 14.4913 11.2069 15.0357 12.0973 15.682C12.2051 14.1913 12.5402 12.6349 13.1026 11.0126C13.6649 9.39042 14.3887 7.93919 15.2743 6.65897C15.4725 6.38364 15.7144 6.24597 16 6.24597C16.2855 6.24597 16.5274 6.38364 16.7256 6.65897C17.6112 7.93919 18.3351 9.39897 18.8973 11.0383C19.4597 12.6776 19.7949 14.2426 19.9026 15.7333C20.742 15.1384 21.783 14.6111 23.0256 14.1513C24.2683 13.6915 25.3965 13.436 26.4103 13.3846L26.646 13.359C26.8769 13.3419 27.0747 13.4157 27.2396 13.5806C27.4047 13.7457 27.4787 13.9436 27.4616 14.1743L27.436 14.4616C27.3162 16.2016 27.026 17.7742 26.5653 19.1793C26.1046 20.5846 25.4645 21.8309 24.645 22.918C23.8252 24.0051 22.8187 24.9384 21.6256 25.718C20.4325 26.4975 19.0496 27.1429 17.477 27.654C17.1881 27.7495 16.8411 27.8059 16.436 27.823C16.0309 27.8401 15.6839 27.8264 15.395 27.782ZM16.446 26.6C16.2015 22.9333 15.096 20.15 13.1293 18.25C11.1626 16.35 8.75708 15.1777 5.91263 14.7333C5.86819 14.7333 5.86819 14.7333 5.91263 14.7333C6.15708 18.4889 7.29597 21.3111 9.3293 23.2C11.3626 25.0889 13.7349 26.2222 16.446 26.6C16.4904 26.6222 16.4904 26.6277 16.446 26.6166C16.4015 26.6055 16.4015 26.6 16.446 26.6ZM13.4 16.6C13.8957 17.012 14.3752 17.5217 14.8383 18.1293C15.3016 18.7371 15.6889 19.3196 16 19.877C16.2991 19.3196 16.6833 18.7371 17.1526 18.1293C17.6217 17.5217 18.1042 17.012 18.6 16.6C18.5897 15.2477 18.3569 13.823 17.9013 12.3256C17.4457 10.8281 16.812 9.39819 16 8.03597C15.188 9.39819 14.5542 10.8237 14.0986 12.3126C13.6431 13.8015 13.4102 15.2306 13.4 16.6ZM16.6973 21.446C16.964 22.1571 17.1832 22.8751 17.355 23.6C17.5267 24.3249 17.6682 25.1762 17.7793 26.154C18.8015 25.8017 19.7913 25.3291 20.7486 24.736C21.706 24.1426 22.5581 23.3887 23.305 22.4743C24.0521 21.5599 24.6777 20.4697 25.182 19.204C25.6862 17.938 25.988 16.4477 26.0873 14.7333C26.0873 14.6889 26.0873 14.6889 26.0873 14.7333C23.93 15.0444 22.0111 15.803 20.3306 17.009C18.6504 18.215 17.4393 19.694 16.6973 21.446Z" fill="#E0D9BA"/>
</g>
</svg>
