<svg xmlns="http://www.w3.org/2000/svg" width="20" height="20" viewBox="0 0 20 20" fill="none">
  <path d="M2 10C2 10.7333 2.125 11.4292 2.375 12.0875C2.625 12.7458 2.975 13.35 3.425 13.9C3.34167 13.9667 3.25 14.0167 3.15 14.05C3.05 14.0833 2.95 14.1 2.85 14.1C2.11667 14.1 1.5 13.8417 1 13.325C0.5 12.8083 0.25 12.1833 0.25 11.45C0.25 10.9833 0.391667 10.5542 0.675 10.1625C0.958333 9.77083 1.33333 9.51667 1.8 9.4C1.6 8.76667 1.5 8.11667 1.5 7.45C1.5 6.25 1.775 5.125 2.325 4.075C2.875 3.025 3.625 2.125 4.575 1.375C5.525 0.625 6.625 0.0666667 7.875 -0.1C9.125 -0.266667 10.4167 -0.166667 11.75 0.2C12.45 0.383333 13.1 0.683333 13.7 1.1C14.3 1.51667 14.8167 2.01667 15.25 2.6C15.6833 3.18333 16.0167 3.825 16.25 4.525C16.4833 5.225 16.6 5.95 16.6 6.7C16.6 7.91667 16.2833 9.05 15.65 10.1C15.0167 11.15 14.15 12.0333 13.05 12.75C13.0833 12.85 13.1 12.95 13.1 13.05C13.1 13.15 13.0833 13.25 13.05 13.35C13.3833 13.2167 13.7 13.0417 14 12.825C14.3 12.6083 14.575 12.3667 14.825 12.1C15.2583 12.4333 15.5583 12.8417 15.725 13.325C15.8917 13.8083 15.9167 14.3 15.8 14.8C15.6833 15.3 15.4417 15.7417 15.075 16.125C14.7083 16.5083 14.275 16.7333 13.775 16.8C12.9417 16.9333 12.175 16.8167 11.475 16.45C10.775 16.0833 10.2 15.5417 9.75 14.825C9.18333 15.125 8.58333 15.3167 7.95 15.4C7.31667 15.4833 6.68333 15.4333 6.05 15.25C5.28333 15.0333 4.59167 14.6583 3.975 14.125C3.35833 13.5917 2.875 12.9583 2.525 12.225C2.175 11.4917 2 10.7333 2 9.95V10ZM17.5 7.45C17.5 6.25 17.225 5.125 16.675 4.075C16.125 3.025 15.375 2.125 14.425 1.375C13.475 0.625 12.375 0.0666667 11.125 -0.1C9.875 -0.266667 8.58333 -0.166667 7.25 0.2C8.2 0.383333 9.08333 0.75 9.9 1.3C10.7167 1.85 11.4167 2.525 12 3.325C12.5833 4.125 13.0167 5 13.3 5.95C13.5833 6.9 13.6833 7.86667 13.6 8.85C14.4667 8.36667 15.15 7.69167 15.65 6.825C16.15 5.95833 16.4 5.01667 16.4 4C16.6167 4.48333 16.725 5 16.725 5.55C16.725 6.1 16.6333 6.63333 16.45 7.15C16.8 7.23333 17.0917 7.3917 17.325 7.625C17.5583 7.85833 17.6917 8.13333 17.725 8.45C17.7583 8.76667 17.7 9.07083 17.55 9.3625C17.4 9.65417 17.1833 9.875 16.9 10.025C17.2333 9.51667 17.4167 8.96667 17.45 8.375C17.4833 7.78333 17.4 7.2 17.2 6.625C17.35 6.86667 17.4417 7.14167 17.475 7.45C17.5083 7.75833 17.5 8.06667 17.45 8.375C17.4833 8.06667 17.5 7.75833 17.5 7.45Z" fill="#E0D9BA"/>
</svg>
