<svg width="32" height="32" viewBox="0 0 32 32" fill="none" xmlns="http://www.w3.org/2000/svg">
<mask id="mask0_904_3569" style="mask-type:alpha" maskUnits="userSpaceOnUse" x="0" y="0" width="32" height="32">
<rect width="32" height="32" fill="#D9D9D9"/>
</mask>
<g mask="url(#mask0_904_3569)">
<path d="M16 25.7306C15.6907 25.7306 15.3923 25.6687 15.105 25.545C14.8179 25.421 14.5667 25.2291 14.3513 24.9693L4.35634 12.9743C4.19056 12.7812 4.06623 12.5701 3.98334 12.341C3.90045 12.1118 3.85901 11.8674 3.85901 11.6076C3.85901 11.4418 3.8799 11.2791 3.92168 11.1193C3.96368 10.9593 4.02312 10.799 4.10001 10.6383L6.47168 5.85129C6.66501 5.49218 6.93301 5.20496 7.27568 4.98963C7.61834 4.77429 7.99401 4.66663 8.40268 4.66663H23.5973C24.006 4.66663 24.3817 4.77429 24.7243 4.98963C25.067 5.20496 25.335 5.49218 25.5283 5.85129L27.9 10.6383C27.9769 10.799 28.0363 10.9593 28.0783 11.1193C28.1201 11.2791 28.141 11.4418 28.141 11.6076C28.141 11.8674 28.0996 12.1118 28.0167 12.341C27.9338 12.5701 27.8095 12.7812 27.6437 12.9743L17.6487 24.9693C17.4333 25.2291 17.1821 25.421 16.895 25.545C16.6077 25.6687 16.3093 25.7306 16 25.7306ZM11.7563 11.3333H20.2437L17.577 5.99996H14.423L11.7563 11.3333ZM15.3333 24.0793V12.6666H5.85634L15.3333 24.0793ZM16.6667 24.0793L26.1437 12.6666H16.6667V24.0793ZM21.723 11.3333H26.7437L24.3077 6.46163C24.2392 6.32474 24.1367 6.21363 24 6.12829C23.8633 6.04274 23.718 5.99996 23.564 5.99996H19.0563L21.723 11.3333ZM5.25634 11.3333H10.277L12.9437 5.99996H8.43601C8.28201 5.99996 8.13668 6.04274 8.00001 6.12829C7.86334 6.21363 7.76079 6.32474 7.69234 6.46163L5.25634 11.3333Z" fill="#E0D9BA"/>
</g>
</svg>
