<svg width="32" height="32" viewBox="0 0 32 32" fill="none" xmlns="http://www.w3.org/2000/svg">
<mask id="mask0_1044_3466" style="mask-type:alpha" maskUnits="userSpaceOnUse" x="0" y="0" width="32" height="32">
<rect width="32" height="32" fill="#D9D9D9"/>
</mask>
<g mask="url(#mask0_1044_3466)">
<path d="M16.0003 12.3667C16.467 12.3667 16.867 12.2 17.2003 11.8667C17.5337 11.5333 17.7003 11.1333 17.7003 10.6667C17.7003 10.2 17.5337 9.8 17.2003 9.46666C16.867 9.13333 16.467 8.96666 16.0003 8.96666C15.5337 8.96666 15.1337 9.13333 14.8003 9.46666C14.467 9.8 14.3003 10.2 14.3003 10.6667C14.3003 11.1333 14.467 11.5333 14.8003 11.8667C15.1337 12.2 15.5337 12.3667 16.0003 12.3667ZM16.008 17.5667C15.3689 17.5667 14.7911 17.3722 14.2747 16.9833C13.7584 16.5944 13.4114 16.0556 13.2337 15.3667C13.1225 15.4333 12.9948 15.4722 12.8503 15.4833C12.7059 15.4944 12.567 15.5 12.4337 15.5C11.6632 15.5 11.004 15.2333 10.456 14.7C9.90777 14.1667 9.63366 13.5111 9.63366 12.7333C9.63366 12.36 9.71699 12 9.88366 11.6533C10.0503 11.3067 10.2559 10.9778 10.5003 10.6667C10.2559 10.3556 10.0559 10.0267 9.90033 9.68C9.74477 9.33333 9.66699 8.97333 9.66699 8.6C9.66699 7.82222 9.93632 7.16666 10.475 6.63333C11.0134 6.1 11.6663 5.83333 12.4337 5.83333C12.567 5.83333 12.7059 5.83888 12.8503 5.85C12.9948 5.86111 13.1337 5.88888 13.267 5.93333C13.4448 5.26666 13.7837 4.73888 14.2837 4.35C14.7837 3.96111 15.3559 3.76666 16.0003 3.76666C16.6448 3.76666 17.217 3.96111 17.717 4.35C18.217 4.73888 18.5559 5.26666 18.7337 5.93333C18.867 5.88888 19.0059 5.86111 19.1503 5.85C19.2948 5.83888 19.4337 5.83333 19.567 5.83333C20.3343 5.83333 20.9872 6.1 21.5257 6.63333C22.0643 7.16666 22.3337 7.82222 22.3337 8.6C22.3337 8.98111 22.2559 9.34866 22.1003 9.70266C21.9448 10.0564 21.7448 10.3778 21.5003 10.6667C21.7448 10.9778 21.9448 11.3067 22.1003 11.6533C22.2559 12 22.3337 12.36 22.3337 12.7333C22.3337 13.5111 22.0643 14.1667 21.5257 14.7C20.9872 15.2333 20.3343 15.5 19.567 15.5C19.4337 15.5 19.2948 15.4944 19.1503 15.4833C19.0059 15.4722 18.8559 15.4333 18.7003 15.3667C18.5448 16.0556 18.217 16.5944 17.717 16.9833C17.217 17.3722 16.6473 17.5667 16.008 17.5667ZM16.0003 27.3333C16.0003 26.2 16.2725 25.0778 16.817 23.9667C17.3614 22.8556 18.0781 21.8556 18.967 20.9667C19.8559 20.0778 20.8559 19.3611 21.967 18.8167C23.0781 18.2722 24.2003 18 25.3337 18C25.3337 19.1333 25.0614 20.2556 24.517 21.3667C23.9725 22.4778 23.2559 23.4778 22.367 24.3667C21.4781 25.2556 20.4781 25.9722 19.367 26.5167C18.2559 27.0611 17.1337 27.3333 16.0003 27.3333ZM17.0003 26.3333C18.8892 25.8667 20.467 25 21.7337 23.7333C23.0003 22.4667 23.867 20.8889 24.3337 19C22.4448 19.4667 20.867 20.3333 19.6003 21.6C18.3337 22.8667 17.467 24.4444 17.0003 26.3333ZM16.0003 27.3333C16.0003 26.2 15.7281 25.0778 15.1837 23.9667C14.6392 22.8556 13.9225 21.8556 13.0337 20.9667C12.1448 20.0778 11.1448 19.3611 10.0337 18.8167C8.92255 18.2722 7.80033 18 6.66699 18C6.66699 19.1333 6.93921 20.2556 7.48366 21.3667C8.0281 22.4778 8.74477 23.4778 9.63366 24.3667C10.5225 25.2556 11.5225 25.9722 12.6337 26.5167C13.7448 27.0611 14.867 27.3333 16.0003 27.3333ZM15.0003 26.3333C13.1114 25.8667 11.5337 25 10.267 23.7333C9.00033 22.4667 8.13366 20.8889 7.66699 19C9.55588 19.4667 11.1337 20.3333 12.4003 21.6C13.667 22.8667 14.5337 24.4444 15.0003 26.3333ZM19.567 14.5667C20.0719 14.5667 20.5037 14.3867 20.8623 14.0267C21.221 13.6667 21.4003 13.2333 21.4003 12.7267C21.4003 12.3533 21.2892 12.0056 21.067 11.6833C20.8448 11.3611 20.5448 11.1778 20.167 11.1333L18.6337 10.9C18.607 11.0909 18.567 11.2776 18.5137 11.46C18.4603 11.6422 18.3781 11.8222 18.267 12C18.1559 12.1778 18.0448 12.3333 17.9337 12.4667C17.8225 12.6 17.6781 12.7222 17.5003 12.8333L18.4003 13.9667C18.5559 14.1444 18.73 14.2889 18.9227 14.4C19.1151 14.5111 19.3299 14.5667 19.567 14.5667ZM18.6337 10.4333L20.167 10.2C20.5448 10.1556 20.8448 9.97266 21.067 9.65133C21.2892 9.33022 21.4003 8.97977 21.4003 8.6C21.4003 8.09511 21.2238 7.66333 20.8707 7.30466C20.5175 6.946 20.083 6.76666 19.567 6.76666C19.3181 6.76666 19.1003 6.82222 18.9137 6.93333C18.727 7.04444 18.5559 7.18888 18.4003 7.36666L17.5003 8.5C17.6781 8.61111 17.8225 8.73333 17.9337 8.86666C18.0448 9 18.1559 9.15555 18.267 9.33333C18.3781 9.51111 18.4603 9.69111 18.5137 9.87333C18.567 10.0558 18.607 10.2424 18.6337 10.4333ZM14.867 8.26666C15.0521 8.2 15.2373 8.14444 15.4227 8.1C15.6078 8.05555 15.8022 8.03333 16.006 8.03333C16.2095 8.03333 16.404 8.05555 16.5893 8.1C16.7744 8.14444 16.9559 8.2 17.1337 8.26666L17.8003 6.53966C17.9781 6.06877 17.8725 5.64444 17.4837 5.26666C17.0948 4.88888 16.6003 4.7 16.0003 4.7C15.4003 4.7 14.9059 4.88888 14.517 5.26666C14.1281 5.64444 14.0225 6.06877 14.2003 6.53966L14.867 8.26666ZM16.0003 16.6333C16.6003 16.6333 17.0948 16.4444 17.4837 16.0667C17.8725 15.6889 17.9781 15.2646 17.8003 14.7937L17.1337 13.0667C16.9559 13.1556 16.7744 13.2167 16.5893 13.25C16.404 13.2833 16.2095 13.3 16.006 13.3C15.8022 13.3 15.6059 13.2833 15.417 13.25C15.2281 13.2167 15.0448 13.1556 14.867 13.0667L14.2003 14.7937C14.0225 15.2646 14.1281 15.6889 14.517 16.0667C14.9059 16.4444 15.4003 16.6333 16.0003 16.6333ZM13.367 10.4333C13.3937 10.2424 13.4337 10.0558 13.487 9.87333C13.5403 9.69111 13.6225 9.51111 13.7337 9.33333C13.8448 9.15555 13.9559 9 14.067 8.86666C14.1781 8.73333 14.3225 8.61111 14.5003 8.5L13.6003 7.36666C13.4448 7.18888 13.2707 7.04444 13.078 6.93333C12.8855 6.82222 12.6708 6.76666 12.4337 6.76666C11.9288 6.76666 11.497 6.946 11.1383 7.30466C10.7797 7.66333 10.6003 8.09511 10.6003 8.6C10.6003 8.97977 10.7114 9.33022 10.9337 9.65133C11.1559 9.97266 11.4559 10.1556 11.8337 10.2L13.367 10.4333ZM12.4337 14.5667C12.6781 14.5667 12.9003 14.5111 13.1003 14.4C13.3003 14.2889 13.467 14.1444 13.6003 13.9667L14.5003 12.8333C14.3225 12.7222 14.1781 12.6 14.067 12.4667C13.9559 12.3333 13.8448 12.1778 13.7337 12C13.6225 11.8222 13.5403 11.6422 13.487 11.46C13.4337 11.2776 13.3937 11.0909 13.367 10.9L11.8337 11.1333C11.4559 11.1778 11.1503 11.3607 10.917 11.682C10.6837 12.0031 10.567 12.3536 10.567 12.7333C10.567 13.2444 10.7503 13.6778 11.117 14.0333C11.4837 14.3889 11.9225 14.5667 12.4337 14.5667Z" fill="#E0D9BA"/>
</g>
</svg>
