<svg width="32" height="32" viewBox="0 0 32 32" fill="none" xmlns="http://www.w3.org/2000/svg">
<mask id="mask0_1044_3484" style="mask-type:alpha" maskUnits="userSpaceOnUse" x="0" y="0" width="32" height="32">
<rect width="32" height="32" fill="#D9D9D9"/>
</mask>
<g mask="url(#mask0_1044_3484)">
<path d="M15.9997 26.9333C13.5244 26.9333 11.4167 26.081 9.67674 24.3763C7.93652 22.6719 7.06641 20.5968 7.06641 18.151C7.06641 16.9837 7.3053 15.8667 7.78307 14.8C8.26085 13.7333 8.88863 12.7778 9.66641 11.9333L15.9997 5.73334L22.3331 11.9333C23.1108 12.7778 23.7386 13.7338 24.2164 14.8013C24.6942 15.8689 24.9331 16.9876 24.9331 18.1573C24.9331 20.608 24.063 22.6833 22.3227 24.3833C20.5827 26.0833 18.4751 26.9333 15.9997 26.9333ZM15.9997 26C18.222 26 20.1108 25.2444 21.6664 23.7333C23.222 22.2222 23.9997 20.3641 23.9997 18.159C23.9997 17.1121 23.7997 16.1153 23.3997 15.1687C22.9997 14.222 22.422 13.3923 21.6664 12.6797L15.9997 7.06667L10.3331 12.6797C9.57752 13.3923 8.99974 14.222 8.59974 15.1687C8.19974 16.1153 7.99974 17.1121 7.99974 18.159C7.99974 20.3641 8.77752 22.2222 10.3331 23.7333C11.8886 25.2444 13.7775 26 15.9997 26Z" fill="#E0D9BA"/>
</g>
</svg>
