<svg width="32" height="32" viewBox="0 0 32 32" fill="none" xmlns="http://www.w3.org/2000/svg">
<mask id="mask0_1044_3472" style="mask-type:alpha" maskUnits="userSpaceOnUse" x="0" y="0" width="32" height="32">
<rect width="32" height="32" fill="#D9D9D9"/>
</mask>
<g mask="url(#mask0_1044_3472)">
<path d="M8.40006 24.9167C7.55562 24.0611 6.90007 23.0865 6.4334 21.9927C5.96673 20.8989 5.7334 19.768 5.7334 18.6C5.7334 17.4222 5.96118 16.2445 6.41673 15.0667C6.87229 13.8889 7.60007 12.8 8.60006 11.8C9.46673 10.9333 10.5723 10.2611 11.9167 9.78335C13.2612 9.30557 14.689 8.96668 16.2001 8.76668C17.7112 8.56668 19.2278 8.46112 20.7501 8.45001C22.2723 8.4389 23.6445 8.46668 24.8667 8.53335C24.9556 9.73335 24.9945 11.0945 24.9834 12.6167C24.9723 14.1389 24.8556 15.6556 24.6334 17.1667C24.4112 18.6778 24.0612 20.1056 23.5834 21.45C23.1056 22.7945 22.4445 23.8889 21.6001 24.7333C20.6223 25.7333 19.5612 26.4611 18.4167 26.9167C17.2723 27.3722 16.1305 27.6 14.9914 27.6C13.7972 27.6 12.6112 27.3667 11.4334 26.9C10.2556 26.4333 9.24451 25.7722 8.40006 24.9167ZM10.2001 25.2C10.9112 25.6889 11.6945 26.0556 12.5501 26.3C13.4056 26.5445 14.2223 26.6667 15.0001 26.6667C16.0374 26.6667 17.0634 26.4667 18.0781 26.0667C19.0927 25.6667 20.0445 25 20.9334 24.0667C21.3292 23.6667 21.7305 23.1056 22.1374 22.3833C22.5443 21.6611 22.8962 20.7167 23.1931 19.55C23.49 18.3833 23.7153 16.9722 23.8691 15.3167C24.0231 13.6611 24.0667 11.6889 24.0001 9.40001C22.9112 9.35557 21.6723 9.35001 20.2834 9.38335C18.8945 9.41668 17.5056 9.5389 16.1167 9.75001C14.7278 9.96112 13.4278 10.2778 12.2167 10.7C11.0056 11.1222 10.0445 11.6889 9.3334 12.4C8.35562 13.3778 7.66673 14.4056 7.26673 15.4833C6.86673 16.5611 6.66673 17.5556 6.66673 18.4667C6.66673 19.6445 6.90562 20.7667 7.3834 21.8333C7.86118 22.9 8.48895 23.7556 9.26673 24.4C9.71118 22.8889 10.4612 21.4389 11.5167 20.05C12.5723 18.6611 14.1556 17.3111 16.2667 16C14.7556 17.3111 13.5001 18.6778 12.5001 20.1C11.5001 21.5222 10.7334 23.2222 10.2001 25.2Z" fill="#E0D9BA"/>
</g>
</svg>
