<svg xmlns="http://www.w3.org/2000/svg" width="14" height="20" viewBox="0 0 14 20" fill="none">
  <path d="M6 20C4.33333 20 2.91667 19.4167 1.75 18.25C0.583333 17.0833 0 15.6667 0 14V12C1.18333 11.9833 2.3 12.225 3.35 12.725C4.4 13.225 5.28333 13.9 6 14.75V10.925C4.56667 10.6917 3.375 10.0208 2.425 8.9125C1.475 7.80417 1 6.5 1 5V1.6C1 1.16667 1.19167 0.8625 1.575 0.6875C1.95833 0.5125 2.31667 0.566667 2.65 0.85L4.5 2.45L6.225 0.35C6.425 0.116667 6.68333 0 7 0C7.31667 0 7.575 0.116667 7.775 0.35L9.5 2.45L11.35 0.85C11.6833 0.566667 12.0417 0.5125 12.425 0.6875C12.8083 0.8625 13 1.16667 13 1.6V5C13 6.5 12.525 7.80417 11.575 8.9125C10.625 10.0208 9.43333 10.6917 8 10.925V14.75C8.71667 13.9 9.6 13.225 10.65 12.725C11.7 12.225 12.8167 11.9833 14 12V14C14 15.6667 13.4167 17.0833 12.25 18.25C11.0833 19.4167 9.66667 20 8 20H6Z" fill="#E0D9BA"/>
</svg>
