<svg width="24" height="24" viewBox="0 0 24 24" fill="none" xmlns="http://www.w3.org/2000/svg">
<mask id="mask0_973_3488" style="mask-type:alpha" maskUnits="userSpaceOnUse" x="0" y="0" width="24" height="24">
<rect width="24" height="24" fill="#5F3A43"/>
</mask>
<g mask="url(#mask0_973_3488)">
<path d="M12.1731 21.4808C11.045 21.3439 9.92447 21.0437 8.81163 20.58C7.6988 20.1163 6.6988 19.4464 5.81163 18.5703C4.92447 17.6939 4.19722 16.5853 3.62988 15.2443C3.06272 13.9033 2.75663 12.2898 2.71163 10.404L2.69238 9.50002L3.57713 9.51927C4.35013 9.53843 5.20105 9.68043 6.12988 9.94527C7.05872 10.2099 7.88597 10.5718 8.61163 11.0308C8.75397 9.68726 9.13605 8.29177 9.75788 6.84427C10.3797 5.39693 11.1271 4.16043 12.0001 3.13477C12.8731 4.16043 13.6206 5.40018 14.2424 6.85401C14.8642 8.30785 15.2463 9.70652 15.3886 11.05C16.095 10.6103 16.9061 10.2501 17.8221 9.96927C18.7381 9.68843 19.5987 9.53843 20.4039 9.51927L21.3079 9.50002L21.2886 10.423C21.263 12.1295 21.0097 13.6196 20.5289 14.8933C20.0482 16.1669 19.3995 17.2483 18.5829 18.1375C17.7662 19.0265 16.8117 19.7428 15.7194 20.2865C14.6271 20.83 13.445 21.2281 12.1731 21.4808ZM12.1424 19.95C11.959 17.1833 11.1382 15.0917 9.67988 13.675C8.22155 12.2583 6.40905 11.3833 4.24238 11.05C4.42572 13.9 5.27155 16.025 6.77988 17.425C8.28822 18.825 10.0757 19.6667 12.1424 19.95ZM12.0001 14.254C12.2373 13.8617 12.5335 13.4536 12.8886 13.0298C13.2438 12.6061 13.5976 12.2462 13.9501 11.95C13.9296 10.9615 13.7485 9.92977 13.4069 8.85477C13.0652 7.77977 12.5963 6.74101 12.0001 5.73851C11.404 6.74101 10.9351 7.77977 10.5934 8.85477C10.2517 9.92977 10.0706 10.9615 10.0501 11.95C10.4026 12.2462 10.7575 12.6061 11.1146 13.0298C11.4716 13.4536 11.7668 13.8617 12.0001 14.254ZM13.6424 19.5578C14.3424 19.3256 15.0385 19.0051 15.7309 18.5963C16.4232 18.1873 17.0553 17.6488 17.6271 16.9808C18.1988 16.3128 18.6776 15.4935 19.0636 14.523C19.4495 13.5525 19.6809 12.3948 19.7579 11.05C18.1656 11.2833 16.7585 11.8282 15.5366 12.6845C14.3148 13.541 13.4065 14.6103 12.8116 15.8923C13.0116 16.4256 13.1793 16.9865 13.3146 17.575C13.4498 18.1635 13.559 18.8244 13.6424 19.5578Z" fill="#4F3138"/>
</g>
</svg>
