<svg width="32" height="32" viewBox="0 0 32 32" fill="none" xmlns="http://www.w3.org/2000/svg">
<mask id="mask0_1044_3496" style="mask-type:alpha" maskUnits="userSpaceOnUse" x="0" y="0" width="32" height="32">
<rect width="32" height="32" fill="#D9D9D9"/>
</mask>
<g mask="url(#mask0_1044_3496)">
<path d="M16.0004 27.6C13.9115 27.6 12.2004 27.355 10.8671 26.865C9.53372 26.3748 8.86706 25.742 8.86706 24.9667C8.86706 24.5889 9.07261 24.2222 9.48372 23.8667C9.89484 23.5111 10.4559 23.2111 11.1671 22.9667L11.9004 23.5334C11.4782 23.6889 11.0448 23.9 10.6004 24.1667C10.1559 24.4334 9.88928 24.6889 9.80039 24.9334C9.9115 25.4 10.5504 25.8056 11.7171 26.15C12.8837 26.4945 14.3059 26.6667 15.9837 26.6667C17.6615 26.6667 19.0893 26.4945 20.2671 26.15C21.4448 25.8056 22.0893 25.4 22.2004 24.9334C22.1559 24.6889 21.8837 24.4334 21.3837 24.1667C20.8837 23.9 20.4115 23.6889 19.9671 23.5334L20.7004 22.9667C21.4782 23.2111 22.0782 23.5111 22.5004 23.8667C22.9226 24.2222 23.1337 24.5839 23.1337 24.9517C23.1337 25.7315 22.4671 26.3678 21.1337 26.8607C19.8004 27.3536 18.0893 27.6 16.0004 27.6ZM16.0337 22.4334C18.2559 20.6778 19.9171 18.9722 21.0171 17.3167C22.1171 15.6611 22.6671 14.0445 22.6671 12.4667C22.6671 10.112 21.9504 8.33447 20.5171 7.13403C19.0837 5.93358 17.5837 5.33336 16.0171 5.33336C14.4504 5.33336 12.9448 5.93447 11.5004 7.13669C10.0559 8.33869 9.33372 10.1187 9.33372 12.4767C9.33372 14.0256 9.88372 15.6222 10.9837 17.2667C12.0837 18.9111 13.7671 20.6334 16.0337 22.4334ZM16.0004 23.6C13.4491 21.6418 11.5445 19.74 10.2867 17.8947C9.02917 16.0496 8.40039 14.242 8.40039 12.472C8.40039 11.1351 8.62817 9.96669 9.08372 8.96669C9.53928 7.96669 10.1337 7.1278 10.8671 6.45002C11.6004 5.77225 12.4188 5.26114 13.3224 4.91669C14.2257 4.57225 15.1202 4.40002 16.0057 4.40002C16.8911 4.40002 17.7837 4.57225 18.6837 4.91669C19.5837 5.26114 20.4004 5.77225 21.1337 6.45002C21.8671 7.1278 22.4615 7.96758 22.9171 8.96936C23.3726 9.97136 23.6004 11.1371 23.6004 12.4667C23.6004 14.2376 22.9716 16.046 21.7141 17.892C20.4563 19.7382 18.5517 21.6409 16.0004 23.6ZM16.0171 14.3C16.5615 14.3 17.0282 14.1111 17.4171 13.7334C17.8059 13.3556 18.0004 12.8834 18.0004 12.3167C18.0004 11.75 17.8046 11.2722 17.4131 10.8834C17.0213 10.4945 16.5504 10.3 16.0004 10.3C15.4671 10.3 15.0004 10.4958 14.6004 10.8874C14.2004 11.2791 14.0004 11.75 14.0004 12.3C14.0004 12.8778 14.2004 13.3556 14.6004 13.7334C15.0004 14.1111 15.4726 14.3 16.0171 14.3Z" fill="#E0D9BA"/>
</g>
</svg>
