<svg width="32" height="32" viewBox="0 0 32 32" fill="none" xmlns="http://www.w3.org/2000/svg">
<mask id="mask0_1044_3490" style="mask-type:alpha" maskUnits="userSpaceOnUse" x="0" y="0" width="32" height="32">
<rect width="32" height="32" fill="#D9D9D9"/>
</mask>
<g mask="url(#mask0_1044_3490)">
<path d="M10.6664 27.6C9.67641 27.6 8.82896 27.2475 8.12407 26.5424C7.41896 25.8375 7.06641 24.99 7.06641 24V12C7.06641 11 7.41641 10.15 8.11641 9.45002C8.81641 8.75002 9.66641 8.40002 10.6664 8.40002V6.40002C10.6664 5.85002 10.8623 5.37914 11.2541 4.98736C11.6456 4.5958 12.1164 4.40002 12.6664 4.40002H19.3331C19.8831 4.40002 20.354 4.5958 20.7457 4.98736C21.1373 5.37914 21.3331 5.85002 21.3331 6.40002V8.40002C22.3331 8.40002 23.1831 8.75002 23.8831 9.45002C24.5831 10.15 24.9331 11 24.9331 12V24C24.9331 24.99 24.5806 25.8375 23.8757 26.5424C23.1706 27.2475 22.3231 27.6 21.3331 27.6H10.6664ZM7.99974 17.5334H23.9997V12C23.9997 11.2667 23.7386 10.6389 23.2164 10.1167C22.6942 9.59447 22.0664 9.33336 21.3331 9.33336H10.6664C9.93307 9.33336 9.30529 9.59447 8.78307 10.1167C8.26085 10.6389 7.99974 11.2667 7.99974 12V17.5334ZM10.6664 26.6667H21.3331C22.0664 26.6667 22.6942 26.4056 23.2164 25.8834C23.7386 25.3611 23.9997 24.7334 23.9997 24V18.4667H7.99974V24C7.99974 24.7334 8.26085 25.3611 8.78307 25.8834C9.30529 26.4056 9.93307 26.6667 10.6664 26.6667ZM16.9331 8.40002H20.3997V6.40002C20.3997 6.08891 20.2997 5.83336 20.0997 5.63336C19.8997 5.43336 19.6442 5.33336 19.3331 5.33336H12.6664C12.3553 5.33336 12.0997 5.43336 11.8997 5.63336C11.6997 5.83336 11.5997 6.08891 11.5997 6.40002V8.40002H15.0664C15.0664 8.15558 15.1609 7.93891 15.3497 7.75002C15.5386 7.56114 15.7553 7.46669 15.9997 7.46669C16.2442 7.46669 16.4608 7.56114 16.6497 7.75002C16.8386 7.93891 16.9331 8.15558 16.9331 8.40002Z" fill="#E0D9BA"/>
</g>
</svg>
