<svg xmlns="http://www.w3.org/2000/svg" width="16" height="16" viewBox="0 0 16 16" fill="none">
  <mask id="mask0_480_99" style="mask-type:alpha" maskUnits="userSpaceOnUse" x="0" y="0" width="16" height="16">
    <rect width="16" height="16" fill="#D9D9D9"/>
  </mask>
  <g mask="url(#mask0_480_99)">
    <path d="M8.18335 12.6667C8.31669 12.6556 8.43058 12.6028 8.52502 12.5084C8.61947 12.4139 8.66669 12.3 8.66669 12.1667C8.66669 12.0112 8.61669 11.8862 8.51669 11.7917C8.41669 11.6973 8.28891 11.6556 8.13335 11.6667C7.6778 11.7 7.19447 11.575 6.68335 11.2917C6.17224 11.0084 5.85002 10.4945 5.71669 9.75004C5.69447 9.62782 5.63613 9.52782 5.54169 9.45004C5.44724 9.37226 5.33891 9.33337 5.21669 9.33337C5.06113 9.33337 4.93335 9.39171 4.83335 9.50837C4.73335 9.62504 4.70002 9.76115 4.73335 9.91671C4.92224 10.9278 5.36669 11.65 6.06669 12.0834C6.76669 12.5167 7.47224 12.7112 8.18335 12.6667ZM8.00002 14.6667C6.4778 14.6667 5.20835 14.1445 4.19169 13.1C3.17502 12.0556 2.66669 10.7556 2.66669 9.20004C2.66669 8.08893 3.10835 6.8806 3.99169 5.57504C4.87502 4.26948 6.21113 2.8556 8.00002 1.33337C9.78891 2.8556 11.125 4.26948 12.0084 5.57504C12.8917 6.8806 13.3334 8.08893 13.3334 9.20004C13.3334 10.7556 12.825 12.0556 11.8084 13.1C10.7917 14.1445 9.52224 14.6667 8.00002 14.6667ZM8.00002 13.3334C9.15558 13.3334 10.1111 12.9417 10.8667 12.1584C11.6222 11.375 12 10.3889 12 9.20004C12 8.38893 11.6639 7.47226 10.9917 6.45004C10.3195 5.42782 9.32224 4.31115 8.00002 3.10004C6.6778 4.31115 5.68058 5.42782 5.00835 6.45004C4.33613 7.47226 4.00002 8.38893 4.00002 9.20004C4.00002 10.3889 4.3778 11.375 5.13335 12.1584C5.88891 12.9417 6.84446 13.3334 8.00002 13.3334Z" fill="#E0D9BA"/>
  </g>
</svg>
