<svg width="32" height="32" viewBox="0 0 32 32" fill="none" xmlns="http://www.w3.org/2000/svg">
<mask id="mask0_904_3572" style="mask-type:alpha" maskUnits="userSpaceOnUse" x="0" y="0" width="32" height="32">
<rect width="32" height="32" fill="#D9D9D9"/>
</mask>
<g mask="url(#mask0_904_3572)">
<path d="M15.0206 26.4103C14.8206 25.8283 14.5651 25.2912 14.254 24.7989C13.9429 24.3065 13.5762 23.8476 13.154 23.4223C12.7318 22.9972 12.2762 22.6277 11.7873 22.3139C11.2984 22.0004 10.7651 21.7436 10.1873 21.5436C10.2318 22.1881 10.3873 22.7881 10.654 23.3436C10.9206 23.8992 11.2762 24.3992 11.7206 24.8436C12.1651 25.2881 12.6651 25.6448 13.2206 25.9139C13.7762 26.1833 14.3762 26.3487 15.0206 26.4103ZM16.954 26.4103C17.5984 26.3607 18.2008 26.2026 18.761 25.9359C19.3212 25.6693 19.8254 25.3137 20.2736 24.8693C20.7219 24.4248 21.0793 23.9205 21.346 23.3563C21.6126 22.7923 21.7709 22.1881 21.8206 21.5436C21.2469 21.7436 20.7118 21.9992 20.2153 22.3103C19.7189 22.6214 19.261 22.9881 18.8416 23.4103C18.4223 23.8325 18.0539 24.2936 17.7363 24.7936C17.4188 25.2936 17.158 25.8325 16.954 26.4103ZM16 15.4359C17.4153 15.4359 18.6153 14.9436 19.6 13.9589C20.5846 12.9743 21.077 11.7743 21.077 10.3589V7.98961L18.7436 9.95627L16 6.32294L13.2563 9.95627L10.923 7.98961V10.3589C10.923 11.7743 11.4153 12.9743 12.4 13.9589C13.3846 14.9436 14.5846 15.4359 16 15.4359ZM15.4873 27.7436C13.6353 27.7436 12.0612 27.0954 10.765 25.7989C9.46854 24.5027 8.82031 22.9287 8.82031 21.0769V19.8973C10.2272 20.1144 11.511 20.6204 12.6716 21.4153C13.8323 22.2102 14.7195 23.1828 15.3333 24.3333V16.7459C13.7129 16.5888 12.3504 15.9038 11.246 14.6909C10.1418 13.4781 9.58965 12.0341 9.58965 10.3589V7.41528C9.58965 6.94016 9.80254 6.6115 10.2283 6.42927C10.6539 6.24727 11.0375 6.31094 11.3793 6.62027L13.077 8.08694L15.146 5.36394C15.3675 5.08705 15.6538 4.94861 16.0046 4.94861C16.3553 4.94861 16.6384 5.08705 16.854 5.36394L18.923 8.08694L20.6206 6.62027C20.9624 6.31094 21.3461 6.24727 21.7716 6.42927C22.1974 6.6115 22.4103 6.94016 22.4103 7.41528V10.3589C22.4103 12.0341 21.8582 13.4781 20.754 14.6909C19.6495 15.9038 18.2871 16.5888 16.6666 16.7459V24.3076C17.2804 23.1743 18.1633 22.2102 19.3153 21.4153C20.4675 20.6204 21.7385 20.1144 23.1283 19.8973V21.0769C23.1283 22.9287 22.4826 24.5027 21.1913 25.7989C19.9 27.0954 18.332 27.7436 16.4873 27.7436H15.4873Z" fill="#E0D9BA"/>
</g>
</svg>
