<svg xmlns="http://www.w3.org/2000/svg" width="20" height="20" viewBox="0 0 20 20" fill="none">
  <path d="M10 13.5C11.3261 13.5 12.5979 12.9732 13.5355 12.0355C14.4732 11.0979 15 9.82608 15 8.5C15 7.17392 14.4732 5.90215 13.5355 4.96447C12.5979 4.02678 11.3261 3.5 10 3.5C8.67392 3.5 7.40215 4.02678 6.46447 4.96447C5.52678 5.90215 5 7.17392 5 8.5C5 9.82608 5.52678 11.0979 6.46447 12.0355C7.40215 12.9732 8.67392 13.5 10 13.5ZM10 0.5V2.5M10 14.5V16.5M4.22 4.72L5.64 6.14M14.36 14.36L15.78 15.78M0.5 8.5H2.5M14.5 8.5H16.5M4.22 12.28L5.64 10.86M14.36 2.64L15.78 4.06" stroke="#E0D9BA" stroke-width="1" stroke-linecap="round" stroke-linejoin="round" fill="none"/>
</svg>
