<svg width="32" height="32" viewBox="0 0 32 32" fill="none" xmlns="http://www.w3.org/2000/svg">
<mask id="mask0_904_3575" style="mask-type:alpha" maskUnits="userSpaceOnUse" x="0" y="0" width="32" height="32">
<rect width="32" height="32" fill="#D9D9D9"/>
</mask>
<g mask="url(#mask0_904_3575)">
<path d="M16 7.28201C15.7249 7.28201 15.4851 7.1799 15.2806 6.97568C15.0764 6.77146 14.9743 6.53168 14.9743 6.25635C14.9743 5.98124 15.0764 5.74157 15.2806 5.53735C15.4851 5.3329 15.7249 5.23068 16 5.23068C16.2751 5.23068 16.5149 5.3329 16.7193 5.53735C16.9235 5.74157 17.0256 5.98124 17.0256 6.25635C17.0256 6.53168 16.9235 6.77146 16.7193 6.97568C16.5149 7.1799 16.2751 7.28201 16 7.28201ZM16 2.87168C15.7249 2.87168 15.4851 2.76957 15.2806 2.56535C15.0764 2.36112 14.9743 2.12135 14.9743 1.84601C14.9743 1.5709 15.0764 1.33123 15.2806 1.12701C15.4851 0.92279 15.7249 0.820679 16 0.820679C16.2751 0.820679 16.5149 0.92279 16.7193 1.12701C16.9235 1.33123 17.0256 1.5709 17.0256 1.84601C17.0256 2.12135 16.9235 2.36112 16.7193 2.56535C16.5149 2.76957 16.2751 2.87168 16 2.87168ZM12.0716 27.2307C10.9743 26.5573 10.1196 25.6633 9.50764 24.5487C8.89564 23.4342 8.58108 22.2257 8.56397 20.923C8.58108 19.4308 8.99908 18.0773 9.81797 16.8627C10.6366 15.6482 11.723 14.7205 13.077 14.0793V10.7693C13.077 10.5805 13.1409 10.4221 13.2686 10.2943C13.3964 10.1666 13.5547 10.1027 13.7436 10.1027H18.2563C18.4452 10.1027 18.6035 10.1666 18.7313 10.2943C18.8591 10.4221 18.923 10.5805 18.923 10.7693V14.0793C20.2716 14.7205 21.3567 15.6482 22.1783 16.8627C22.9996 18.0773 23.4189 19.4308 23.436 20.923C23.4189 22.2257 23.1043 23.4342 22.4923 24.5487C21.8803 25.6633 21.0256 26.5573 19.9283 27.2307H12.0716ZM12.4616 25.8973H19.5383C20.3316 25.3042 20.9573 24.5763 21.4153 23.7137C21.8735 22.851 22.1026 21.9208 22.1026 20.923C22.1026 19.7492 21.7893 18.6717 21.1626 17.6903C20.5362 16.7088 19.694 15.9573 18.636 15.436L17.5896 14.9333V11.436H14.4103V14.9333L13.364 15.436C12.306 15.9573 11.4637 16.7088 10.8373 17.6903C10.2106 18.6717 9.89731 19.7492 9.89731 20.923C9.89731 21.9208 10.1264 22.851 10.5846 23.7137C11.0426 24.5763 11.6683 25.3042 12.4616 25.8973ZM8.51264 4.20501C8.23753 4.20501 7.99786 4.1029 7.79364 3.89868C7.58942 3.69446 7.4873 3.45468 7.4873 3.17935C7.4873 2.90423 7.58942 2.66457 7.79364 2.46035C7.99786 2.25612 8.23753 2.15401 8.51264 2.15401C8.78797 2.15401 9.02775 2.25612 9.23197 2.46035C9.43619 2.66457 9.5383 2.90423 9.5383 3.17935C9.5383 3.45468 9.43619 3.69446 9.23197 3.89868C9.02775 4.1029 8.78797 4.20501 8.51264 4.20501ZM23.4873 4.20501C23.212 4.20501 22.9722 4.1029 22.768 3.89868C22.5637 3.69446 22.4616 3.45468 22.4616 3.17935C22.4616 2.90423 22.5637 2.66457 22.768 2.46035C22.9722 2.25612 23.212 2.15401 23.4873 2.15401C23.7624 2.15401 24.0021 2.25612 24.2063 2.46035C24.4105 2.66457 24.5126 2.90423 24.5126 3.17935C24.5126 3.45468 24.4105 3.69446 24.2063 3.89868C24.0021 4.1029 23.7624 4.20501 23.4873 4.20501ZM11.5896 7.28201C11.3145 7.28201 11.0749 7.1799 10.8706 6.97568C10.6662 6.77146 10.564 6.53168 10.564 6.25635C10.564 5.98124 10.6662 5.74157 10.8706 5.53735C11.0749 5.3329 11.3145 5.23068 11.5896 5.23068C11.865 5.23068 12.1047 5.3329 12.309 5.53735C12.5132 5.74157 12.6153 5.98124 12.6153 6.25635C12.6153 6.53168 12.5132 6.77146 12.309 6.97568C12.1047 7.1799 11.865 7.28201 11.5896 7.28201ZM20.4103 7.28201C20.135 7.28201 19.8952 7.1799 19.691 6.97568C19.4867 6.77146 19.3846 6.53168 19.3846 6.25635C19.3846 5.98124 19.4867 5.74157 19.691 5.53735C19.8952 5.3329 20.135 5.23068 20.4103 5.23068C20.6854 5.23068 20.9251 5.3329 21.1293 5.53735C21.3338 5.74157 21.436 5.98124 21.436 6.25635C21.436 6.53168 21.3338 6.77146 21.1293 6.97568C20.9251 7.1799 20.6854 7.28201 20.4103 7.28201Z" fill="#E0D9BA"/>
</g>
</svg>
