<svg width="32" height="32" viewBox="0 0 32 32" fill="none" xmlns="http://www.w3.org/2000/svg">
<mask id="mask0_1044_3478" style="mask-type:alpha" maskUnits="userSpaceOnUse" x="0" y="0" width="32" height="32">
<rect width="32" height="32" fill="#D9D9D9"/>
</mask>
<g mask="url(#mask0_1044_3478)">
<path d="M15.9997 7.46665C15.7552 7.46665 15.5386 7.37221 15.3497 7.18332C15.1608 6.99443 15.0663 6.77776 15.0663 6.53332C15.0663 6.28887 15.1608 6.07221 15.3497 5.88332C15.5386 5.69443 15.7552 5.59998 15.9997 5.59998C16.2441 5.59998 16.4608 5.69443 16.6497 5.88332C16.8386 6.07221 16.933 6.28887 16.933 6.53332C16.933 6.77776 16.8386 6.99443 16.6497 7.18332C16.4608 7.37221 16.2441 7.46665 15.9997 7.46665ZM15.9997 2.93332C15.7552 2.93332 15.5386 2.83887 15.3497 2.64998C15.1608 2.46109 15.0663 2.24443 15.0663 1.99998C15.0663 1.75554 15.1608 1.53887 15.3497 1.34998C15.5386 1.16109 15.7552 1.06665 15.9997 1.06665C16.2441 1.06665 16.4608 1.16109 16.6497 1.34998C16.8386 1.53887 16.933 1.75554 16.933 1.99998C16.933 2.24443 16.8386 2.46109 16.6497 2.64998C16.4608 2.83887 16.2441 2.93332 15.9997 2.93332ZM12.333 26.6C11.333 25.9778 10.5552 25.1555 9.99967 24.1333C9.44412 23.1111 9.15523 22 9.13301 20.8C9.15523 19.4 9.55523 18.1389 10.333 17.0167C11.1108 15.8944 12.133 15.0333 13.3997 14.4333V11.2C13.3997 11.0678 13.4443 10.957 13.5337 10.8677C13.6232 10.7781 13.7341 10.7333 13.8663 10.7333H18.133C18.2652 10.7333 18.376 10.7781 18.4653 10.8677C18.5549 10.957 18.5997 11.0678 18.5997 11.2V14.4333C19.8663 15.0333 20.8886 15.8944 21.6663 17.0167C22.4441 18.1389 22.8441 19.4 22.8663 20.8C22.8441 22 22.5552 23.1111 21.9997 24.1333C21.4441 25.1555 20.6663 25.9778 19.6663 26.6H12.333ZM12.5997 25.6667H19.3997C20.1775 25.0889 20.7941 24.3775 21.2497 23.5327C21.7052 22.688 21.933 21.7771 21.933 20.8C21.933 19.6609 21.6275 18.615 21.0163 17.6623C20.4052 16.7097 19.5886 15.9778 18.5663 15.4667L17.6663 15.0333V11.6667H14.333V15.0333L13.433 15.4667C12.4108 15.9778 11.5941 16.7097 10.983 17.6623C10.3719 18.615 10.0663 19.6609 10.0663 20.8C10.0663 21.7771 10.2941 22.688 10.7497 23.5327C11.2052 24.3775 11.8219 25.0889 12.5997 25.6667ZM8.26634 4.26665C8.0219 4.26665 7.80523 4.17221 7.61634 3.98332C7.42745 3.79443 7.33301 3.57776 7.33301 3.33332C7.33301 3.08887 7.42745 2.87221 7.61634 2.68332C7.80523 2.49443 8.0219 2.39998 8.26634 2.39998C8.51079 2.39998 8.72745 2.49443 8.91634 2.68332C9.10523 2.87221 9.19967 3.08887 9.19967 3.33332C9.19967 3.57776 9.10523 3.79443 8.91634 3.98332C8.72745 4.17221 8.51079 4.26665 8.26634 4.26665ZM23.733 4.26665C23.4886 4.26665 23.2719 4.17221 23.083 3.98332C22.8941 3.79443 22.7997 3.57776 22.7997 3.33332C22.7997 3.08887 22.8941 2.87221 23.083 2.68332C23.2719 2.49443 23.4886 2.39998 23.733 2.39998C23.9775 2.39998 24.1941 2.49443 24.383 2.68332C24.5719 2.87221 24.6663 3.08887 24.6663 3.33332C24.6663 3.57776 24.5719 3.79443 24.383 3.98332C24.1941 4.17221 23.9775 4.26665 23.733 4.26665ZM11.4663 7.46665C11.2219 7.46665 11.0052 7.37221 10.8163 7.18332C10.6275 6.99443 10.533 6.77776 10.533 6.53332C10.533 6.28887 10.6275 6.07221 10.8163 5.88332C11.0052 5.69443 11.2219 5.59998 11.4663 5.59998C11.7108 5.59998 11.9275 5.69443 12.1163 5.88332C12.3052 6.07221 12.3997 6.28887 12.3997 6.53332C12.3997 6.77776 12.3052 6.99443 12.1163 7.18332C11.9275 7.37221 11.7108 7.46665 11.4663 7.46665ZM20.533 7.46665C20.2886 7.46665 20.0719 7.37221 19.883 7.18332C19.6941 6.99443 19.5997 6.77776 19.5997 6.53332C19.5997 6.28887 19.6941 6.07221 19.883 5.88332C20.0719 5.69443 20.2886 5.59998 20.533 5.59998C20.7775 5.59998 20.9941 5.69443 21.183 5.88332C21.3719 6.07221 21.4663 6.28887 21.4663 6.53332C21.4663 6.77776 21.3719 6.99443 21.183 7.18332C20.9941 7.37221 20.7775 7.46665 20.533 7.46665Z" fill="#E0D9BA"/>
</g>
</svg>
