<svg xmlns="http://www.w3.org/2000/svg" width="16" height="16" viewBox="0 0 16 16" fill="none">
  <path d="M12.2635 4.68142C11.7337 4.68245 11.3029 4.25347 11.3018 3.72366C11.3008 3.19384 11.7298 2.76305 12.2598 2.76201C12.7899 2.76098 13.2207 3.19021 13.2217 3.72003C13.2225 4.24984 12.7935 4.68038 12.2635 4.68142Z" fill="white"/>
  <path fill-rule="evenodd" clip-rule="evenodd" d="M8.00765 12.1073C5.73939 12.1117 3.89673 10.2766 3.89233 8.00777C3.88792 5.73949 5.72357 3.89654 7.99184 3.89214C10.2606 3.88773 12.1035 5.72393 12.1079 7.99197C12.1123 10.2608 10.2762 12.1029 8.00765 12.1073ZM7.99469 5.33357C6.52243 5.33616 5.33063 6.53239 5.33322 8.00492C5.33607 9.47772 6.53254 10.6693 8.0048 10.6664C9.47758 10.6636 10.6694 9.46761 10.6665 7.99482C10.6637 6.52202 9.46722 5.33072 7.99469 5.33357Z" fill="white"/>
  <path fill-rule="evenodd" clip-rule="evenodd" d="M2.74614 0.430986C3.25417 0.231917 3.83556 0.0955751 4.68677 0.0553992C5.54007 0.0144489 5.81248 0.00511452 7.98458 0.000969112C10.1572 -0.0031763 10.4296 0.00511332 11.2829 0.0429566C12.1344 0.0797631 12.716 0.214034 13.2251 0.41103C13.7518 0.613984 14.1987 0.887189 14.644 1.33069C15.0893 1.7747 15.3635 2.22002 15.569 2.74594C15.7679 3.2545 15.9042 3.83537 15.9446 4.68712C15.9851 5.54015 15.9949 5.81232 15.9991 7.98471C16.0032 10.1568 15.9944 10.4295 15.9571 11.2833C15.92 12.1343 15.786 12.7162 15.589 13.225C15.3855 13.7517 15.1128 14.1986 14.6694 14.6439C14.2259 15.0895 13.78 15.3635 13.2541 15.5693C12.7456 15.7678 12.1647 15.9042 11.3135 15.9449C10.4602 15.9853 10.1878 15.9949 8.01491 15.999C5.84306 16.0032 5.57065 15.9949 4.71736 15.9573C3.86588 15.92 3.28398 15.786 2.77516 15.5892C2.24848 15.3855 1.80161 15.1131 1.3563 14.6693C0.910739 14.2256 0.636256 13.78 0.430971 13.2541C0.231904 12.7458 0.0960703 12.1646 0.0553808 11.3137C0.0146897 10.4601 0.00510249 10.1874 0.000958675 8.01529C-0.00320114 5.8429 0.00535729 5.57074 0.0426774 4.71744C0.0802662 3.8657 0.213758 3.28404 0.410753 2.77471C0.614218 2.24826 0.886897 1.80165 1.33091 1.35609C1.7744 0.910777 2.22022 0.636012 2.74614 0.430986ZM3.29436 14.2453C3.57662 14.3539 4.00015 14.4835 4.78009 14.5174C5.62404 14.554 5.87676 14.562 8.01231 14.5579C10.1486 14.554 10.4014 14.5449 11.2451 14.5052C12.0242 14.4682 12.4478 14.337 12.7292 14.2271C13.1028 14.0812 13.3687 13.9067 13.6481 13.6271C13.9275 13.3463 14.1004 13.0796 14.2451 12.7061C14.3539 12.4236 14.4833 11.9998 14.5172 11.2198C14.5543 10.3764 14.562 10.1234 14.5579 7.9873C14.554 5.85171 14.5449 5.59874 14.5048 4.75503C14.468 3.9756 14.3371 3.55206 14.2269 3.27082C14.081 2.89679 13.9071 2.63137 13.6266 2.35169C13.3461 2.072 13.0794 1.89963 12.7054 1.755C12.4236 1.64588 11.9996 1.51679 11.2202 1.48284C10.3762 1.44577 10.1232 1.43825 7.98717 1.4424C5.85162 1.44655 5.59891 1.4551 4.75521 1.49502C3.97553 1.53208 3.55251 1.66298 3.2705 1.77314C2.89725 1.91907 2.63131 2.09248 2.35164 2.3732C2.07247 2.65391 1.89959 2.92012 1.75496 3.29441C1.64662 3.57643 1.51623 4.00048 1.4828 4.77991C1.44599 5.62387 1.43822 5.87686 1.44236 8.01244C1.44626 10.1485 1.45532 10.4015 1.49498 11.2447C1.53153 12.0247 1.66345 12.4477 1.7731 12.7299C1.91903 13.1029 2.09296 13.3689 2.37315 13.6486C2.65387 13.9272 2.92059 14.1006 3.29436 14.2453Z" fill="white"/>
</svg>