<svg width="16" height="16" viewBox="0 0 16 16" fill="none" xmlns="http://www.w3.org/2000/svg">
<mask id="mask0_432_294" style="mask-type:alpha" maskUnits="userSpaceOnUse" x="0" y="0" width="16" height="16">
<rect width="16" height="16" fill="#D9D9D9"/>
</mask>
<g mask="url(#mask0_432_294)">
<path d="M7.99996 8C7.26663 8 6.63885 7.73889 6.11663 7.21667C5.5944 6.69444 5.33329 6.06667 5.33329 5.33333C5.33329 4.6 5.5944 3.97222 6.11663 3.45C6.63885 2.92778 7.26663 2.66667 7.99996 2.66667C8.73329 2.66667 9.36107 2.92778 9.88329 3.45C10.4055 3.97222 10.6666 4.6 10.6666 5.33333C10.6666 6.06667 10.4055 6.69444 9.88329 7.21667C9.36107 7.73889 8.73329 8 7.99996 8ZM2.66663 13.3333V11.4667C2.66663 11.0889 2.76385 10.7417 2.95829 10.425C3.15274 10.1083 3.41107 9.86667 3.73329 9.7C4.42218 9.35556 5.12218 9.09722 5.83329 8.925C6.5444 8.75278 7.26663 8.66667 7.99996 8.66667C8.73329 8.66667 9.45551 8.75278 10.1666 8.925C10.8777 9.09722 11.5777 9.35556 12.2666 9.7C12.5888 9.86667 12.8472 10.1083 13.0416 10.425C13.2361 10.7417 13.3333 11.0889 13.3333 11.4667V13.3333H2.66663ZM3.99996 12H12V11.4667C12 11.3444 11.9694 11.2333 11.9083 11.1333C11.8472 11.0333 11.7666 10.9556 11.6666 10.9C11.0666 10.6 10.4611 10.375 9.84996 10.225C9.23885 10.075 8.62218 10 7.99996 10C7.37774 10 6.76107 10.075 6.14996 10.225C5.53885 10.375 4.93329 10.6 4.33329 10.9C4.23329 10.9556 4.15274 11.0333 4.09163 11.1333C4.03051 11.2333 3.99996 11.3444 3.99996 11.4667V12ZM7.99996 6.66667C8.36663 6.66667 8.68052 6.53611 8.94163 6.275C9.20274 6.01389 9.33329 5.7 9.33329 5.33333C9.33329 4.96667 9.20274 4.65278 8.94163 4.39167C8.68052 4.13056 8.36663 4 7.99996 4C7.63329 4 7.3194 4.13056 7.05829 4.39167C6.79718 4.65278 6.66663 4.96667 6.66663 5.33333C6.66663 5.7 6.79718 6.01389 7.05829 6.275C7.3194 6.53611 7.63329 6.66667 7.99996 6.66667Z" fill="#E0D9BA"/>
</g>
</svg>
