<svg xmlns="http://www.w3.org/2000/svg" width="16" height="16" viewBox="0 0 16 16" fill="none">
  <path d="M8.00657 6.99957e-07C3.58484 3.13396e-07 -3.12882e-07 3.57895 -6.98807e-07 7.99342C-9.95009e-07 11.3816 2.10873 14.2763 5.0873 15.4408C5.01481 14.8092 4.95551 13.8355 5.11366 13.1447C5.25864 12.5197 6.04941 9.17105 6.04941 9.17105C6.04941 9.17105 5.81218 8.69079 5.81218 7.98684C5.81218 6.875 6.45797 6.04605 7.26193 6.04605C7.94726 6.04605 8.27675 6.55921 8.27675 7.17105C8.27675 7.85526 7.84183 8.88158 7.61119 9.83553C7.42008 10.6316 8.01316 11.2829 8.79734 11.2829C10.2207 11.2829 11.3146 9.7829 11.3146 7.625C11.3146 5.71053 9.93737 4.375 7.96703 4.375C5.68697 4.375 4.34925 6.07895 4.34925 7.84211C4.34925 8.52632 4.61284 9.26316 4.94233 9.66447C5.00823 9.74342 5.01482 9.81579 4.99505 9.89474C4.93574 10.1447 4.79735 10.6908 4.77099 10.8026C4.73804 10.9474 4.65238 10.9803 4.50081 10.9079C3.49917 10.4408 2.87314 8.98684 2.87314 7.80921C2.87314 5.28947 4.7051 2.97368 8.16473 2.97369C10.939 2.97369 13.1005 4.94737 13.1005 7.59211C13.1005 10.3487 11.3608 12.5658 8.94891 12.5658C8.13837 12.5658 7.37395 12.1447 7.11695 11.6447C7.11695 11.6447 6.71498 13.1711 6.61613 13.5461C6.43821 14.2434 5.95056 15.1118 5.62107 15.6447C6.37231 15.875 7.16308 16 7.99339 16C12.4151 16 16 12.4211 16 8.00658C16.0131 3.57895 12.4283 1.08652e-06 8.00657 6.99957e-07Z" fill="white"/>
</svg>