<svg width="52" height="72" viewBox="0 0 52 72" fill="none" xmlns="http://www.w3.org/2000/svg">
<path fill-rule="evenodd" clip-rule="evenodd" d="M43.6343 1.74334H4.06041C3.09759 1.74334 2.31707 2.52386 2.31707 3.48668V68.5133C2.31707 69.4761 3.09759 70.2567 4.06041 70.2567H43.6343C44.5971 70.2567 45.3776 69.4761 45.3776 68.5133V3.48668C45.3776 2.52386 44.5971 1.74334 43.6343 1.74334ZM4.06041 0C2.13477 0 0.57373 1.56104 0.57373 3.48668V68.5133C0.57373 70.439 2.13477 72 4.06041 72H43.6343C45.5599 72 47.1209 70.439 47.1209 68.5133V3.48668C47.1209 1.56104 45.5599 0 43.6343 0H4.06041Z" fill="white"/>
<path d="M38.7249 46.2195H40.789V51.2543H39.0875V50.6685C38.4087 51.1706 37.5347 51.4217 36.4655 51.4217C35.5636 51.4217 34.7361 51.2264 33.983 50.8359C33.2299 50.4454 32.6301 49.8782 32.1838 49.1344C31.7376 48.3813 31.5144 47.4887 31.5144 46.4566C31.5144 45.4617 31.7422 44.5785 32.1978 43.8067C32.6627 43.0257 33.3042 42.4167 34.1224 41.9797C34.9407 41.5427 35.8611 41.3242 36.8839 41.3242C37.7393 41.3242 38.5157 41.4683 39.213 41.7566C39.9103 42.0448 40.4961 42.4632 40.9703 43.0118L39.5198 44.3507C38.8225 43.6161 37.981 43.2489 36.9955 43.2489C36.3725 43.2489 35.8193 43.3837 35.3358 43.6533C34.8523 43.9137 34.4758 44.2856 34.2061 44.7691C33.9365 45.2525 33.8017 45.8104 33.8017 46.4427C33.8017 47.1028 33.9318 47.6653 34.1922 48.1302C34.4618 48.5951 34.8198 48.9484 35.2661 49.1902C35.7124 49.4226 36.2005 49.5388 36.7305 49.5388C37.5208 49.5388 38.1856 49.3157 38.7249 48.8694V46.2195Z" fill="white"/>
<path d="M26.2022 41.3242C27.3644 41.3242 28.271 41.6915 28.9218 42.426C29.5727 43.1512 29.8981 44.1879 29.8981 45.5361V51.2543H27.6387V45.6059C27.6387 44.8248 27.4527 44.2391 27.0808 43.8486C26.7182 43.4488 26.2115 43.2489 25.5606 43.2489C24.8726 43.2489 24.3194 43.4627 23.901 43.8904C23.4919 44.3088 23.2873 44.9318 23.2873 45.7593V51.2543H21.028V41.4916H23.2176V42.6771C23.5523 42.2308 23.9707 41.896 24.4728 41.6729C24.9749 41.4404 25.5513 41.3242 26.2022 41.3242Z" fill="white"/>
<path d="M17.6334 43.3048V49.4413H19.3209V51.2544H13.6725V49.4413H15.374V43.3048H13.6725V41.4917H19.3209V43.3048H17.6334Z" fill="white"/>
<path d="M12.5051 44.2251C11.6683 43.7417 10.7711 43.4302 9.81341 43.2907V51.2543H7.55403V43.2907C6.59636 43.4302 5.69447 43.7417 4.84837 44.2251L4.0813 42.5376C4.75074 42.1378 5.47597 41.8356 6.25699 41.631C7.03801 41.4265 7.84227 41.3242 8.66977 41.3242C9.50658 41.3242 10.3155 41.4265 11.0965 41.631C11.8868 41.8356 12.6121 42.1378 13.2722 42.5376L12.5051 44.2251Z" fill="white"/>
<path d="M23.5575 33.3325C23.0926 33.6487 22.5068 33.895 21.8002 34.0717C21.1029 34.2484 20.359 34.3367 19.5687 34.3367C18.5832 34.3367 17.7464 34.2158 17.0583 33.9741C16.3703 33.723 15.8496 33.379 15.4963 32.942C15.143 32.4957 14.9663 31.989 14.9663 31.4218C14.9663 30.9011 15.1104 30.4409 15.3987 30.0411C15.6869 29.6413 16.082 29.3438 16.5841 29.1485C16.2029 28.944 15.9054 28.665 15.6915 28.3117C15.487 27.9584 15.3847 27.5632 15.3847 27.1262C15.3847 26.5963 15.5474 26.1128 15.8728 25.6758C16.1983 25.2388 16.6911 24.8901 17.3512 24.6298C18.0113 24.3694 18.8203 24.2393 19.7779 24.2393C20.4102 24.2393 21.0285 24.3043 21.6328 24.4345C22.2372 24.5554 22.7625 24.7227 23.2088 24.9366L22.5812 26.666C21.7258 26.2662 20.8193 26.0663 19.8616 26.0663C19.1364 26.0663 18.5878 26.1779 18.2159 26.401C17.8533 26.6149 17.672 26.9077 17.672 27.2796C17.672 27.6237 17.7928 27.8887 18.0346 28.0746C18.2856 28.2513 18.6622 28.3396 19.1643 28.3396H21.8281V30.1248H19.0248C18.4576 30.1248 18.0206 30.2224 17.7138 30.4177C17.407 30.6129 17.2536 30.8965 17.2536 31.2684C17.2536 31.6589 17.4488 31.9657 17.8393 32.1889C18.2391 32.4027 18.8481 32.5097 19.6664 32.5097C20.2428 32.5097 20.8193 32.4353 21.3958 32.2865C21.9722 32.1285 22.4604 31.91 22.8602 31.631L23.5575 33.3325Z" fill="white"/>
<path d="M8.94875 30.3341L7.63776 31.7009V34.1694H5.39233V24.4067H7.63776V28.9673L11.9612 24.4067H14.4717L10.4271 28.7581L14.7088 34.1694H12.0728L8.94875 30.3341Z" fill="white"/>
<path d="M39.7376 17.085L37.8548 14.3654H37.7432H35.7767V17.085H33.5173V7.32227H37.7432C38.6079 7.32227 39.3564 7.46638 39.9886 7.75461C40.6302 8.04285 41.123 8.45195 41.467 8.98193C41.811 9.5119 41.983 10.1395 41.983 10.8647C41.983 11.59 41.8063 12.2176 41.453 12.7475C41.109 13.2682 40.6162 13.668 39.9747 13.947L42.1643 17.085H39.7376ZM39.6957 10.8647C39.6957 10.3162 39.5191 9.89776 39.1658 9.60953C38.8124 9.312 38.2964 9.16323 37.6177 9.16323H35.7767V12.5662H37.6177C38.2964 12.5662 38.8124 12.4175 39.1658 12.1199C39.5191 11.8224 39.6957 11.404 39.6957 10.8647Z" fill="white"/>
<path d="M26.8104 7.15479C27.7123 7.15479 28.498 7.33144 29.1674 7.68476C29.8368 8.03808 30.3575 8.55876 30.7294 9.24679C31.1013 9.93483 31.2873 10.767 31.2873 11.7433V17.0849H29.0279V14.7418H24.565V17.0849H22.3335V11.7433C22.3335 10.767 22.5195 9.93483 22.8914 9.24679C23.2633 8.55876 23.784 8.03808 24.4534 7.68476C25.1228 7.33144 25.9085 7.15479 26.8104 7.15479ZM29.0279 12.9287V11.5341C29.0279 10.7251 28.828 10.1161 28.4282 9.70704C28.0284 9.28864 27.4845 9.07943 26.7964 9.07943C26.0991 9.07943 25.5505 9.28864 25.1507 9.70704C24.7602 10.1161 24.565 10.7251 24.565 11.5341V12.9287H29.0279Z" fill="white"/>
<path d="M16.5358 7.15479C17.6887 7.15479 18.5859 7.49416 19.2275 8.1729C19.869 8.84234 20.1898 9.81396 20.1898 11.0878V17.0849H17.9304V11.1575C17.9304 10.4695 17.7491 9.95343 17.3865 9.60941C17.0332 9.25609 16.5637 9.07943 15.9779 9.07943C15.3364 9.07943 14.825 9.26539 14.4438 9.6373C14.0626 9.99992 13.8719 10.5531 13.8719 11.297V17.0849H11.6126V11.1575C11.6126 10.4695 11.4452 9.95343 11.1105 9.60941C10.7758 9.25609 10.3202 9.07943 9.74371 9.07943C9.11146 9.07943 8.60473 9.26539 8.22352 9.6373C7.84231 9.99992 7.6517 10.5531 7.6517 11.297V17.0849H5.39233V7.32215H7.58197V8.52156C7.8795 8.08457 8.27466 7.74985 8.76744 7.5174C9.26023 7.27566 9.82739 7.15479 10.4689 7.15479C11.1384 7.15479 11.7242 7.28031 12.2262 7.53135C12.7283 7.77309 13.1142 8.12641 13.3838 8.5913C13.7185 8.12641 14.1555 7.77309 14.6948 7.53135C15.2434 7.28031 15.857 7.15479 16.5358 7.15479Z" fill="white"/>
<path d="M41.1463 64.762C40.8595 64.9878 40.4904 65.1617 40.0389 65.2837C39.5873 65.4058 39.0992 65.4668 38.5745 65.4668C37.9582 65.4668 37.4334 65.3875 37.0002 65.2288C36.5731 65.0702 36.2497 64.8505 36.0301 64.5698C35.8104 64.2892 35.7006 63.9658 35.7006 63.5997C35.7006 63.2458 35.7982 62.9376 35.9934 62.6753C36.1887 62.4129 36.4511 62.2207 36.7806 62.0986C36.5304 61.9644 36.3321 61.7783 36.1856 61.5403C36.0453 61.2963 35.9751 61.0247 35.9751 60.7258C35.9751 60.3841 36.0758 60.0759 36.2772 59.8014C36.4846 59.5207 36.7928 59.298 37.2016 59.1332C37.6104 58.9624 38.1138 58.877 38.7117 58.877C39.1145 58.877 39.508 58.9197 39.8924 59.0051C40.2768 59.0905 40.6124 59.2064 40.8992 59.3529L40.5606 60.2956C40.0236 60.0149 39.4226 59.8746 38.7575 59.8746C38.2328 59.8746 37.8362 59.96 37.5677 60.1309C37.3053 60.2956 37.1741 60.5183 37.1741 60.799C37.1741 61.0736 37.2717 61.2841 37.467 61.4305C37.6623 61.5709 37.949 61.641 38.3273 61.641H40.0206V62.6295H38.2633C37.8301 62.6295 37.4945 62.7058 37.2565 62.8583C37.0185 63.0047 36.8995 63.2244 36.8995 63.5173C36.8995 63.8102 37.0429 64.042 37.3297 64.2129C37.6165 64.3837 38.0497 64.4692 38.6294 64.4692C39.0321 64.4692 39.4226 64.4142 39.8009 64.3044C40.1853 64.1946 40.5056 64.042 40.7619 63.8468L41.1463 64.762Z" fill="white"/>
<path d="M33.5308 58.9688L30.7393 65.3755H29.5678L26.7671 58.9688H28.0576L30.1901 63.9111L32.341 58.9688H33.5308Z" fill="white"/>
<path d="M21.3276 58.877C21.9012 58.877 22.4015 58.9898 22.8287 59.2156C23.2558 59.4414 23.5853 59.777 23.8171 60.2224C24.0551 60.6617 24.1741 61.1956 24.1741 61.8241V65.3753H22.9843V63.7278H19.6527V65.3753H18.4812V61.8241C18.4812 61.1956 18.5971 60.6617 18.829 60.2224C19.067 59.777 19.3995 59.4414 19.8266 59.2156C20.2537 58.9898 20.7541 58.877 21.3276 58.877ZM22.9843 62.7302V61.7142C22.9843 61.1224 22.8378 60.677 22.5449 60.378C22.252 60.0729 21.8432 59.9203 21.3185 59.9203C20.7937 59.9203 20.3849 60.0729 20.092 60.378C19.7992 60.677 19.6527 61.1224 19.6527 61.7142V62.7302H22.9843Z" fill="white"/>
<path d="M14.8439 58.9688V62.7854C14.8439 63.664 14.6181 64.3321 14.1666 64.7898C13.7212 65.2413 13.0805 65.4671 12.2446 65.4671C11.7931 65.4671 11.3904 65.3969 11.0365 65.2565C10.6887 65.1101 10.411 64.9118 10.2036 64.6616C9.99001 64.9118 9.70933 65.1101 9.36154 65.2565C9.01984 65.3969 8.62323 65.4671 8.17171 65.4671C7.33577 65.4671 6.69205 65.2382 6.24052 64.7806C5.789 64.323 5.56323 63.6579 5.56323 62.7854V58.9688H6.75306V62.7488C6.75306 63.3284 6.87205 63.7525 7.11001 64.021C7.35408 64.2894 7.70798 64.4237 8.17171 64.4237C9.12967 64.4237 9.60866 63.8654 9.60866 62.7488V58.9688H10.7985V62.7488C10.7985 63.8654 11.2805 64.4237 12.2446 64.4237C13.1904 64.4237 13.6632 63.8654 13.6632 62.7488V58.9688H14.8439Z" fill="white"/>
<path fill-rule="evenodd" clip-rule="evenodd" d="M30.8908 35.9533C30.615 35.5587 30.7113 35.0153 31.1059 34.7395L32.6542 33.6573C34.5704 32.318 37.1306 32.3631 38.9985 33.7691C40.2636 34.7213 41.9977 34.7519 43.2956 33.8447L43.5895 33.6393C45.4947 32.3077 48.0044 32.2195 49.9983 33.4141L51.448 34.2826C51.861 34.53 51.9952 35.0653 51.7478 35.4783C51.5004 35.8913 50.965 36.0255 50.552 35.7781L49.1024 34.9096C47.6979 34.0682 45.9302 34.1303 44.5882 35.0682L44.2943 35.2736C42.3781 36.613 39.8179 36.5679 37.95 35.1619C36.6849 34.2096 34.9508 34.1791 33.6529 35.0862L32.1047 36.1684C31.7101 36.4442 31.1666 36.3479 30.8908 35.9533Z" fill="white"/>
<path fill-rule="evenodd" clip-rule="evenodd" d="M30.8908 30.9538C30.615 30.5592 30.7113 30.0158 31.1059 29.74L32.6542 28.6578C34.5704 27.3185 37.1306 27.3636 38.9985 28.7695C40.2636 29.7218 41.9977 29.7524 43.2956 28.8452L43.5895 28.6398C45.4947 27.3082 48.0044 27.22 49.9983 28.4146L51.448 29.2831C51.861 29.5305 51.9952 30.0658 51.7478 30.4788C51.5004 30.8917 50.965 31.026 50.552 30.7786L49.1024 29.9101C47.6979 29.0686 45.9302 29.1308 44.5882 30.0687L44.2943 30.2741C42.3781 31.6134 39.8179 31.5684 37.95 30.1624C36.6849 29.2101 34.9508 29.1796 33.6529 30.0867L32.1047 31.1689C31.7101 31.4447 31.1666 31.3484 30.8908 30.9538Z" fill="white"/>
<path fill-rule="evenodd" clip-rule="evenodd" d="M30.8908 25.9538C30.615 25.5592 30.7113 25.0158 31.1059 24.74L32.6542 23.6578C34.5704 22.3185 37.1306 22.3636 38.9985 23.7695C40.2636 24.7218 41.9977 24.7524 43.2956 23.8452L43.5895 23.6398C45.4947 22.3082 48.0044 22.22 49.9983 23.4146L51.448 24.2831C51.861 24.5305 51.9952 25.0658 51.7478 25.4788C51.5004 25.8917 50.965 26.026 50.552 25.7786L49.1024 24.9101C47.6979 24.0686 45.9302 24.1308 44.5882 25.0687L44.2943 25.2741C42.3781 26.6134 39.8179 26.5684 37.95 25.1624C36.6849 24.2101 34.9508 24.1796 33.6529 25.0867L32.1047 26.1689C31.7101 26.4447 31.1666 26.3484 30.8908 25.9538Z" fill="white"/>
</svg>
